<?xml version="1.0" encoding="UTF-8"?>
<svg id="_レイヤー_2" data-name="レイヤー 2" xmlns="http://www.w3.org/2000/svg" viewBox="0 0 496.9 73.71">
  <defs>
    <style>
      .cls-1 {
        fill: #0a1811;
      }
    </style>
  </defs>
  <g id="Layer_1" data-name="Layer 1">
    <g>
      <path class="cls-1" d="M35.3,73.71C15,73.71,0,57.7,0,36.6S15,1,35.3,1h39.4v12.7h-39.4c-13,0-22.6,9.7-22.6,23.5s9.5,23.8,22.6,23.8h39.4v12.7h-39.4Z"/>
      <path class="cls-1" d="M152.5,73.71l-18.4-20.2h-27.2v-11.2h30.3c9.1,0,13.9-5.2,13.9-14.6s-5.2-14-13.9-14h-39.6v60h-12.6V1h52.2c16.6,0,26.4,10.3,26.4,26.5,0,12-5.6,20.5-15,24.1l21.9,22.1h-18Z"/>
      <path class="cls-1" d="M201.8,73.71v-27.6L163.2,1h17.1l28.3,33.5L237,1h16.2l-38.7,45.1v27.6h-12.7Z"/>
      <path class="cls-1" d="M282.7,53.5v-12.3h29.2c8.9,0,14.2-5.6,14.2-13.8s-5.3-13.7-14.2-13.7h-38.5v60h-12.6V1h51.1c16.8,0,26.6,10.1,26.6,26s-9.8,26.5-26.6,26.5h-29.2Z"/>
      <path class="cls-1" d="M370.8,73.71V13.7h-27.6V1h67.9v12.7h-27.6v60h-12.7Z"/>
      <path class="cls-1" d="M481.6,73.71l-10.9-18.3h-34.4l6-10.3h22.3l-16.2-27.2-33,55.8h-14.5L442.7,4.1c1.5-2.5,3.4-4.1,6.2-4.1s4.6,1.6,6.1,4.1l41.9,69.6h-15.3Z"/>
    </g>
  </g>
</svg>